<?xml version="1.0" encoding="UTF-8" ?>
<!DOCTYPE svg PUBLIC "-//W3C//DTD SVG 1.1//EN" "http://www.w3.org/Graphics/SVG/1.1/DTD/svg11.dtd">
<svg width="128pt" height="128pt" viewBox="0 0 128 128" version="1.1" xmlns="http://www.w3.org/2000/svg">
    <g id="#ffffffff" transform="translate(0,16)">
        <path fill="#ffffff" opacity="1" d="m 7,23.01 c 38,-0.02 76,-0.02 114,0 0,5.99 0,11.99 0,17.98 -38,0.02 -76,0.02 -114,0 C 7,35 7,29 7,23.01 m 2,2 c 0,4.66 0,9.32 0,13.98 36.67,0.02 73.33,0.02 110,0 0,-4.66 0,-9.32 0,-13.98 -36.67,-0.02 -73.33,-0.02 -110,0 z"/>
        <path fill="#ffffff" opacity="1" d="m 7,55.01 c 38,-0.02 76,-0.02 114,0 0,5.99 0,11.99 0,17.98 -38,0.02 -76,0.02 -114,0 C 7,67 7,61 7,55.01 m 2,2 c 0,4.66 0,9.32 0,13.98 36.67,0.02 73.33,0.02 110,0 0,-4.66 0,-9.32 0,-13.98 -36.67,-0.02 -73.33,-0.02 -110,0 z"/>
    </g>
    <g id="#c8c8c8ff" transform="translate(0,16)">
        <path fill="#c8c8c8" opacity="1" d="m 9,25.01 c 36.67,-0.02 73.33,-0.02 110,0 0,4.66 0,9.32 0,13.98 -36.67,0.02 -73.33,0.02 -110,0 0,-4.66 0,-9.32 0,-13.98 z"/>
        <path fill="#c8c8c8" opacity="1" d="m 9,57.01 c 36.67,-0.02 73.33,-0.02 110,0 0,4.66 0,9.32 0,13.98 -36.67,0.02 -73.33,0.02 -110,0 0,-4.66 0,-9.32 0,-13.98 z"/>
    </g>
</svg>
